Coordinates
version=1
nRows=26
nColumns=24
inDegrees=yes

Units are S.I. units (second, meters, Newtons, ...)
Angles are in degrees.

endheader
time	pelvis_tilt	pelvis_list	pelvis_rotation	pelvis_tx	pelvis_ty	pelvis_tz	hip_flexion_r	hip_adduction_r	hip_rotation_r	knee_angle_r	ankle_angle_r	subtalar_angle_r	mtp_angle_r	hip_flexion_l	hip_adduction_l	hip_rotation_l	knee_angle_l	ankle_angle_l	subtalar_angle_l	mtp_angle_l	lumbar_extension	lumbar_bending	lumbar_rotation
      0.78766667	      1.09511463	     -3.86219433	      1.59914207	     -0.34741253	      1.00567298	      0.30820037	      8.43473852	      9.42923455	     -1.82884515	    -13.84456885	      3.29232897	    -15.93882101	     -0.06209690	     18.10312231	     -4.54393184	      0.94860926	    -68.57872115	     -6.46208100	     -8.44323202	      3.43712621	     -0.96309866	      7.49721073	      0.78697614
      0.79183333	      1.15849349	     -3.74718483	      1.47590895	     -0.34229837	      1.00643528	      0.30850426	      7.85848511	      9.33083214	     -1.75277478	    -13.53521810	      3.45085684	    -15.63451452	     -0.02951140	     18.59443107	     -4.42531708	      0.91832811	    -68.28923767	     -5.91909393	     -8.65027427	      3.28810985	     -1.10528317	      7.37543171	      1.05855413
      0.79600000	      1.19666603	     -3.63838789	      1.33390416	     -0.33719328	      1.00713093	      0.30882180	      7.31457807	      9.23671539	     -1.67162353	    -13.23549113	      3.59319331	    -15.37681987	      0.00053702	     19.09848641	     -4.32241373	      0.86124505	    -67.95466072	     -5.35412476	     -8.85270933	      3.12930032	     -1.21374238	      7.25535995	      1.25101681
      0.80016667	      1.22955994	     -3.54297037	      1.18555881	     -0.33208604	      1.00778196	      0.30915227	      6.77145433	      9.15689956	     -1.57636336	    -12.92537199	      3.73010928	    -15.14398834	      0.02354992	     19.59261385	     -4.23939426	      0.79775240	    -67.57017230	     -4.78211737	     -9.01798755	      2.99226803	     -1.31430734	      7.15363364	      1.42229932
      0.80433333	      1.26203122	     -3.43451836	      1.02295987	     -0.32698466	      1.00840877	      0.30948715	      6.23172583	      9.05942941	     -1.47898079	    -12.62247191	      3.87226637	    -14.89677073	      0.04164912	     20.06416657	     -4.14602070	      0.71514622	    -67.12402928	     -4.22895492	     -9.16568903	      2.86661903	     -1.41758982	      7.03872514	      1.60822053
      0.80850000	      1.27859633	     -3.33584704	      0.85527192	     -0.32189520	      1.00895706	      0.30982538	      5.71262905	      8.96832882	     -1.38334456	    -12.32408925	      4.01724604	    -14.63027030	      0.05692417	     20.54164093	     -4.06657788	      0.62916851	    -66.63748770	     -3.67931324	     -9.27616797	      2.74382541	     -1.50507147	      6.93430456	      1.79975111
      0.81266667	      1.29608340	     -3.24499521	      0.67122840	     -0.31680315	      1.00948922	      0.31018449	      5.19179424	      8.88554196	     -1.27436581	    -12.02416374	      4.14332682	    -14.40896269	      0.06555956	     20.99716597	     -4.00677836	      0.51625315	    -66.09696342	     -3.13579017	     -9.39579613	      2.67094018	     -1.59001882	      6.82865933	      1.93303606
      0.81683333	      1.34711210	     -3.15674477	      0.51066129	     -0.31170859	      1.01002394	      0.31049293	      4.62311892	      8.79725773	     -1.19733981	    -11.69649666	      4.29361202	    -14.09204204	      0.07422617	     21.40193657	     -3.93708078	      0.43630660	    -65.50454853	     -2.63484519	     -9.42813863	      2.54069981	     -1.72447547	      6.73718610	      2.18631853
      0.82100000	      1.34810633	     -3.07401151	      0.32736419	     -0.30663017	      1.01043360	      0.31083846	      4.12263463	      8.71364183	     -1.10221555	    -11.39578563	      4.44045480	    -13.80024970	      0.07991734	     21.84732427	     -3.88684079	      0.32697910	    -64.87491982	     -2.13947721	     -9.46075134	      2.42021699	     -1.79548999	      6.64653991	      2.37394896
      0.82516667	      1.36652911	     -2.99567285	      0.14569156	     -0.30155098	      1.01084249	      0.31116507	      3.59897117	      8.63029329	     -1.01304047	    -11.08310024	      4.57554099	    -13.51424334	      0.08297057	     22.25376772	     -3.83979418	      0.21748007	    -64.19055786	     -1.67059174	     -9.48853748	      2.30194748	     -1.88333261	      6.56230210	      2.55494788
      0.82933333	      1.38292884	     -2.91386591	     -0.05867410	     -0.29647119	      1.01122113	      0.31150837	      3.08275756	      8.54149026	     -0.89616583	    -10.78242466	      4.69651936	    -13.25607478	      0.08557852	     22.63693678	     -3.79796459	      0.08032187	    -63.45314426	     -1.21980335	     -9.51193677	      2.22292537	     -1.96941372	      6.48545971	      2.69138554
      0.83350000	      1.41968869	     -2.84944107	     -0.23984502	     -0.29139502	      1.01157255	      0.31181420	      2.53585794	      8.46636818	     -0.79932816	    -10.45786635	      4.82158095	    -12.97909081	      0.08763903	     22.98936417	     -3.76691153	     -0.03135345	    -62.67818706	     -0.79666640	     -9.49489087	      2.14620248	     -2.08263443	      6.42200842	      2.85385514
      0.83766667	      1.42525690	     -2.79075930	     -0.42102037	     -0.28631479	      1.01183759	      0.31211848	      2.02681597	      8.39510454	     -0.70536489	    -10.13911052	      4.94382992	    -12.69457002	      0.08896467	     23.35920404	     -3.74200282	     -0.14172989	    -61.86180997	     -0.41053337	     -9.46329947	      2.06518314	     -2.15683908	      6.36270011	      3.02335684
      0.84183333	      1.44512530	     -2.72844015	     -0.60047734	     -0.28124272	      1.01207362	      0.31240053	      1.50614766	      8.31407144	     -0.61680002	     -9.82488385	      5.07005619	    -12.40783755	      0.09092997	     23.69479626	     -3.71025204	     -0.25242019	    -60.99818312	     -0.05142878	     -9.42503625	      1.98516418	     -2.25057299	      6.30217246	      3.18306295
      0.84600000	      1.49247467	     -2.67836869	     -0.76007691	     -0.27613528	      1.01232590	      0.31266515	      0.94516237	      8.24218875	     -0.56942747	     -9.48646065	      5.19687051	    -12.09199772	      0.09146362	     23.98278323	     -3.69175551	     -0.35839777	    -60.08924234	      0.26312301	     -9.37351672	      1.87291717	     -2.36567937	      6.23500532	      3.37540720
      0.85016667	      1.49619570	     -2.62265010	     -0.94134782	     -0.27106211	      1.01247355	      0.31292737	      0.44832943	      8.16288329	     -0.46867883	     -9.18017316	      5.31006042	    -11.81485831	      0.09357145	     24.29596018	     -3.66385050	     -0.46849158	    -59.13271948	      0.56297263	     -9.33323766	      1.77962148	     -2.44137512	      6.19167343	      3.50248958
      0.85433333	      1.51953904	     -2.57709504	     -1.10353561	     -0.26596837	      1.01260971	      0.31316054	     -0.07832460	      8.09178023	     -0.38226634	     -8.85501004	      5.42528619	    -11.54578631	      0.09611894	     24.57061006	     -3.64160170	     -0.56745759	    -58.13464473	      0.83159211	     -9.28129265	      1.68744715	     -2.53147157	      6.14870329	      3.63595115
      0.85850000	      1.55451950	     -2.51900047	     -1.24258430	     -0.26085393	      1.01271567	      0.31332535	     -0.59968612	      7.99359046	     -0.40877590	     -8.55989737	      5.54918323	    -11.11701881	      0.09570478	     24.81211143	     -3.58685550	     -0.64286933	    -57.09044720	      1.09353285	     -9.27339276	      1.35078861	     -2.63550892	      6.09242199	      3.86062455
      0.86266667	      1.57720915	     -2.48502508	     -1.39526308	     -0.25574521	      1.01276304	      0.31355600	     -1.13163138	      7.93531783	     -0.29770041	     -8.22057160	      5.67523339	    -10.92746236	      0.10043199	     25.05278268	     -3.58355269	     -0.75395831	    -56.01358222	      1.28141632	     -9.19024642	      1.24096462	     -2.71708781	      6.05446505	      3.91560901
      0.86683333	      1.56623606	     -2.45635548	     -1.55244492	     -0.25066552	      1.01272298	      0.31376260	     -1.60868433	      7.87990760	     -0.17023702	     -7.91406700	      5.77582471	    -10.73017027	      0.10536934	     25.31047471	     -3.57356353	     -0.84330758	    -54.89654469	      1.47634173	     -9.13819922	      1.16297413	     -2.77078398	      6.03629044	      3.99378821
      0.87100000	      1.59483764	     -2.41186332	     -1.68735118	     -0.24552105	      1.01271480	      0.31392907	     -2.13796599	      7.80072084	     -0.10506937	     -7.59065307	      5.88780853	    -10.51348564	      0.11055132	     25.49697195	     -3.54317880	     -0.94333351	    -53.72499356	      1.63455855	     -9.10070544	      1.06247151	     -2.86085560	      5.99151102	      4.10751324
      0.87516667	      1.61000515	     -2.38042162	     -1.80945081	     -0.24038147	      1.01263260	      0.31409192	     -2.65087581	      7.73708215	     -0.04498146	     -7.26673085	      6.00400893	    -10.29402580	      0.11663552	     25.68669845	     -3.52231787	     -1.03019941	    -52.52568845	      1.77385006	     -9.07415798	      0.94934779	     -2.93003403	      5.95888660	      4.21234851
      0.87933333	      1.59521708	     -2.36054224	     -1.93742638	     -0.23526871	      1.01246379	      0.31423068	     -3.11482634	      7.68550033	      0.05002345	     -6.97631414	      6.11616799	    -10.10589173	      0.12288763	     25.88956291	     -3.50874749	     -1.10735179	    -51.28961330	      1.90005857	     -9.04044776	      0.86171281	     -2.97206165	      5.94601966	      4.27848042
      0.88350000	      1.58515248	     -2.33251018	     -2.05294410	     -0.23013063	      1.01226385	      0.31436148	     -3.58562744	      7.62480758	      0.12268078	     -6.68047200	      6.23531808	     -9.93044826	      0.12897445	     26.06634208	     -3.48526214	     -1.19150648	    -50.01367802	      2.00008095	     -9.02653753	      0.77350398	     -3.01742785	      5.92330093	      4.35125071
      0.88766667	      1.57957374	     -2.30247536	     -2.15952936	     -0.22497863	      1.01203391	      0.31446336	     -4.06135574	      7.55985285	      0.18956530	     -6.38359544	      6.35819269	     -9.76775724	      0.13511081	     26.21702129	     -3.45554313	     -1.27845924	    -48.69832088	      2.08181400	     -9.02230567	      0.68750668	     -3.07367748	      5.90510039	      4.41689300
      0.89183333	      1.57483078	     -2.28529217	     -2.25719160	     -0.21981655	      1.01174809	      0.31457218	     -4.53228710	      7.51120180	      0.24555206	     -6.09980348	      6.48172282	     -9.61124015	      0.14128084	     26.35018420	     -3.43931013	     -1.36504738	    -47.35483419	      2.14582742	     -9.03321557	      0.58990361	     -3.11110813	      5.88407077	      4.48513105
